<svg xmlns="http://www.w3.org/2000/svg" width="285" height="285" viewBox="0 0 285 285">
  <g id="catfish" transform="translate(-330 -1147)">
    <rect id="Rectangle_2293" data-name="Rectangle 2293" width="285" height="285" rx="20" transform="translate(330 1147)" fill="#fff"/>
    <g id="Group_4509" data-name="Group 4509" transform="translate(0 -9)">
      <rect id="Rectangle_2310" data-name="Rectangle 2310" width="145" height="4" rx="2" transform="translate(350 1176)" fill="#f1f3f4"/>
      <rect id="Rectangle_2327" data-name="Rectangle 2327" width="145" height="4" rx="2" transform="translate(350 1212)" fill="#f1f3f4"/>
      <rect id="Rectangle_2329" data-name="Rectangle 2329" width="145" height="4" rx="2" transform="translate(350 1248)" fill="#f1f3f4"/>
      <rect id="Rectangle_2331" data-name="Rectangle 2331" width="145" height="4" rx="2" transform="translate(350 1284)" fill="#f1f3f4"/>
      <rect id="Rectangle_2343" data-name="Rectangle 2343" width="145" height="4" rx="2" transform="translate(350 1338)" fill="#f1f3f4"/>
      <rect id="Rectangle_2333" data-name="Rectangle 2333" width="145" height="4" rx="2" transform="translate(350 1320)" fill="#f1f3f4"/>
      <rect id="Rectangle_2341" data-name="Rectangle 2341" width="145" height="4" rx="2" transform="translate(350 1374)" fill="#f1f3f4"/>
      <rect id="Rectangle_2311" data-name="Rectangle 2311" width="105" height="4" rx="2" transform="translate(350 1194)" fill="#f1f3f4"/>
      <rect id="Rectangle_2326" data-name="Rectangle 2326" width="105" height="4" rx="2" transform="translate(350 1230)" fill="#f1f3f4"/>
      <rect id="Rectangle_2328" data-name="Rectangle 2328" width="105" height="4" rx="2" transform="translate(350 1266)" fill="#f1f3f4"/>
      <rect id="Rectangle_2330" data-name="Rectangle 2330" width="105" height="4" rx="2" transform="translate(350 1302)" fill="#f1f3f4"/>
      <rect id="Rectangle_2342" data-name="Rectangle 2342" width="105" height="4" rx="2" transform="translate(350 1356)" fill="#f1f3f4"/>
    </g>
    <g id="Group_4511" data-name="Group 4511" transform="translate(165 96)">
      <rect id="Rectangle_2310-2" data-name="Rectangle 2310" width="80" height="4" rx="2" transform="translate(350 1179)" fill="#f1f3f4"/>
      <rect id="Rectangle_2364" data-name="Rectangle 2364" width="80" height="4" rx="2" transform="translate(350 1107)" fill="#f1f3f4"/>
      <rect id="Rectangle_2366" data-name="Rectangle 2366" width="80" height="4" rx="2" transform="translate(350 1071)" fill="#f1f3f4"/>
      <rect id="Rectangle_2335" data-name="Rectangle 2335" width="80" height="4" rx="2" transform="translate(350 1215)" fill="#f1f3f4"/>
      <rect id="Rectangle_2362" data-name="Rectangle 2362" width="80" height="4" rx="2" transform="translate(350 1143)" fill="#f1f3f4"/>
      <rect id="Rectangle_2337" data-name="Rectangle 2337" width="80" height="4" rx="2" transform="translate(350 1251)" fill="#f1f3f4"/>
      <rect id="Rectangle_2311-2" data-name="Rectangle 2311" width="55" height="4" rx="2" transform="translate(350 1197)" fill="#f1f3f4"/>
      <rect id="Rectangle_2361" data-name="Rectangle 2361" width="55" height="4" rx="2" transform="translate(350 1125)" fill="#f1f3f4"/>
      <rect id="Rectangle_2365" data-name="Rectangle 2365" width="55" height="4" rx="2" transform="translate(350 1089)" fill="#f1f3f4"/>
      <rect id="Rectangle_2334" data-name="Rectangle 2334" width="55" height="4" rx="2" transform="translate(350 1233)" fill="#f1f3f4"/>
      <rect id="Rectangle_2363" data-name="Rectangle 2363" width="55" height="4" rx="2" transform="translate(350 1161)" fill="#f1f3f4"/>
      <rect id="Rectangle_2336" data-name="Rectangle 2336" width="55" height="4" rx="2" transform="translate(350 1269)" fill="#f1f3f4"/>
    </g>
    <g id="Group_4524" data-name="Group 4524" transform="translate(346.451 1391.679)">
      <g id="Rectangle_1694" data-name="Rectangle 1694" transform="translate(3.549 -9.679)" fill="none" stroke="#0e1013" stroke-width="2">
        <rect width="245" height="30" rx="8" stroke="none"/>
        <rect x="1" y="1" width="243" height="28" rx="7" fill="none"/>
      </g>
      <rect id="Rectangle_1693" data-name="Rectangle 1693" width="10" height="10" rx="1" transform="translate(228.549 0.321)" fill="#0e1013"/>
      <rect id="Rectangle_2340" data-name="Rectangle 2340" width="150" height="10" rx="4" transform="translate(13.549 0.321)" fill="#aef2c9"/>
    </g>
  </g>
</svg>
