<svg xmlns="http://www.w3.org/2000/svg" width="150" height="150" viewBox="0 0 150 150">
  <g id="Group_3948" data-name="Group 3948" transform="translate(-171.19 -397.19)">
    <rect id="Rectangle_1485" data-name="Rectangle 1485" width="150" height="150" rx="5" transform="translate(171.19 397.19)" fill="none"/>
    <g id="report" transform="translate(178.645 404.645)">
      <path id="Path_6620" data-name="Path 6620" d="M125.716,132.5h-85.1L35.5,129.842l-1.082-16.135V71.7l-12.4-1.082L7.851,62.055,2.833,48.281,4.014,34.7,16.9,21.422l13.282-2.853h4.23V6.763l4.526-4.231h65.524L131.422,28.8l.885,2.263v98.778Z" fill="#fff"/>
      <g id="Group_4492" data-name="Group 4492">
        <path id="Path_5634" data-name="Path 5634" d="M242.638,165.277A2.638,2.638,0,1,0,240,162.638,2.64,2.64,0,0,0,242.638,165.277Zm0,0" transform="translate(-176.676 -117.784)" fill="#0e1013"/>
        <path id="Path_5635" data-name="Path 5635" d="M242.638,205.277A2.639,2.639,0,1,0,240,202.638,2.64,2.64,0,0,0,242.638,205.277Zm0,0" transform="translate(-176.676 -147.23)" fill="#0e1013"/>
        <path id="Path_5636" data-name="Path 5636" d="M134.317,27.158,107.932.773A2.666,2.666,0,0,0,106.067,0H39.577a7.924,7.924,0,0,0-7.915,7.915v8.037c-.876-.079-1.757-.122-2.638-.122a29.023,29.023,0,0,0,0,58.047c.881,0,1.762-.042,2.638-.122v53.419a7.924,7.924,0,0,0,7.915,7.915h87.6a7.924,7.924,0,0,0,7.915-7.915V29.024a2.655,2.655,0,0,0-.773-1.865ZM108.705,9.008l17.377,17.377H108.705ZM31.661,21.256a23.782,23.782,0,0,1,20.955,20.96H31.661ZM5.277,44.854a23.78,23.78,0,0,1,21.108-23.6v23.6a2.636,2.636,0,0,0,2.638,2.635H52.617a23.743,23.743,0,0,1-47.34-2.635Zm121.9,84.959h-87.6a2.641,2.641,0,0,1-2.638-2.638v-54.4a29.025,29.025,0,0,0,0-55.849V7.916a2.641,2.641,0,0,1,2.638-2.638h63.851V29.024a2.638,2.638,0,0,0,2.638,2.638h23.746v95.513a2.641,2.641,0,0,1-2.638,2.638Zm0,0" transform="translate(0 0)" fill="#0e1013"/>
        <path id="Path_5637" data-name="Path 5637" d="M248.639,65.277h27.968a2.638,2.638,0,1,0,0-5.277H248.639a2.638,2.638,0,1,0,0,5.277Zm0,0" transform="translate(-181.093 -44.169)" fill="#0e1013"/>
        <path id="Path_5638" data-name="Path 5638" d="M248.639,105.277h27.968a2.638,2.638,0,1,0,0-5.277H248.639a2.638,2.638,0,1,0,0,5.277Zm0,0" transform="translate(-181.093 -73.615)" fill="#0e1013"/>
        <path id="Path_5639" data-name="Path 5639" d="M58.469,175.831a13.207,13.207,0,0,1-13.192-13.192,2.638,2.638,0,0,0-5.277,0,18.49,18.49,0,0,0,18.469,18.469,2.638,2.638,0,1,0,0-5.277Zm0,0" transform="translate(-29.446 -117.784)" fill="#0e1013"/>
        <path id="Path_5640" data-name="Path 5640" d="M233.614,266a7.912,7.912,0,0,0-6.563,12.336L208.728,298a7.927,7.927,0,0,0-5.471.326l-8.252-10.23a7.916,7.916,0,1,0-14.141-.132l-9.621,10.428a7.917,7.917,0,1,0,3.775,3.69l9.621-10.428a7.94,7.94,0,0,0,6.508.066l8.253,10.23a7.917,7.917,0,1,0,13.6-.794l18.322-19.665A7.915,7.915,0,1,0,233.614,266Zm-65.7,42.216a2.638,2.638,0,1,1,2.638-2.639A2.641,2.641,0,0,1,167.915,308.216Zm17.414-23.746a2.638,2.638,0,1,1,2.638,2.638A2.641,2.641,0,0,1,185.329,284.469Zm21.108,23.746a2.638,2.638,0,1,1,2.638-2.639A2.641,2.641,0,0,1,206.437,308.216Zm27.176-31.662a2.638,2.638,0,1,1,2.639-2.638A2.641,2.641,0,0,1,233.614,276.554Zm0,0" transform="translate(-117.784 -195.817)" fill="#0e1013"/>
        <path id="Path_5641" data-name="Path 5641" d="M280,162.638a2.638,2.638,0,0,0,2.639,2.638h40.1a2.638,2.638,0,1,0,0-5.277h-40.1A2.638,2.638,0,0,0,280,162.638Zm0,0" transform="translate(-206.123 -117.784)" fill="#0e1013"/>
        <path id="Path_5642" data-name="Path 5642" d="M322.743,200h-40.1a2.639,2.639,0,1,0,0,5.277h40.1a2.639,2.639,0,1,0,0-5.277Zm0,0" transform="translate(-206.123 -147.23)" fill="#0e1013"/>
      </g>
    </g>
  </g>
</svg>
