<svg xmlns="http://www.w3.org/2000/svg" width="150" height="150" viewBox="0 0 150 150">
  <g id="Group_3948" data-name="Group 3948" transform="translate(-171.108 -397.108)">
    <rect id="Rectangle_1485" data-name="Rectangle 1485" width="150" height="150" rx="5" transform="translate(171.108 397.108)" fill="none"/>
    <g id="business" transform="translate(177.804 401.452)">
      <path id="Path_6619" data-name="Path 6619" d="M50.013,30.293l15.439-4.087,18.39,2.422,12.639,7.8,7.871,10.671,5.676,14.3v13.32l-3.935,13.32-9.611,12.109-6.357,4.617L88.231,120.05l-1.589,8.7-5.9,6.735L68.4,138.818l-8.779-1.211-5.525-3.86-4.087-6.206L47.288,113.92l-.681-10.368-6.736-3.406S29.806,86.9,29.428,85.388s-3.633-14.3-3.633-14.758,2.422-15.969,2.422-15.969l8.628-14.909Z" fill="#fff"/>
      <g id="Group_3956" data-name="Group 3956">
        <g id="Group_3955" data-name="Group 3955">
          <path id="Path_5623" data-name="Path 5623" d="M234.343,18.842a2.355,2.355,0,0,0,2.355-2.355V2.355a2.355,2.355,0,0,0-4.711,0V16.487A2.355,2.355,0,0,0,234.343,18.842Z" transform="translate(-166.039)" fill="#0e1013"/>
          <path id="Path_5624" data-name="Path 5624" d="M120.284,33.475l7.066,12.248a2.355,2.355,0,1,0,4.1-2.329l-.016-.027-7.066-12.248a2.355,2.355,0,0,0-4.1,2.329Z" transform="translate(-86.994 -21.117)" fill="#0e1013"/>
          <path id="Path_5625" data-name="Path 5625" d="M39.2,116.413l12.248,7.066a2.355,2.355,0,0,0,2.355-4.079L41.56,112.333a2.355,2.355,0,0,0-2.355,4.079Z" transform="translate(-29.192 -79.043)" fill="#0e1013"/>
          <path id="Path_5626" data-name="Path 5626" d="M26.83,226.355A2.355,2.355,0,0,0,24.475,224H10.343a2.355,2.355,0,0,0,0,4.711H24.475A2.355,2.355,0,0,0,26.83,226.355Z" transform="translate(-7.988 -158.051)" fill="#0e1013"/>
          <path id="Path_5627" data-name="Path 5627" d="M51.383,312.28l-.027.016-12.248,7.066a2.355,2.355,0,0,0,2.328,4.1l.027-.016,12.248-7.066a2.355,2.355,0,0,0-2.328-4.1Z" transform="translate(-29.105 -220.123)" fill="#0e1013"/>
          <path id="Path_5628" data-name="Path 5628" d="M400.126,319.362,387.879,312.3a2.355,2.355,0,0,0-2.383,4.063l.027.016,12.248,7.066a2.355,2.355,0,0,0,2.356-4.079Z" transform="translate(-273.531 -220.123)" fill="#0e1013"/>
          <path id="Path_5629" data-name="Path 5629" d="M424.475,224H410.343a2.355,2.355,0,0,0,0,4.711h14.132a2.355,2.355,0,0,0,0-4.711Z" transform="translate(-290.223 -158.051)" fill="#0e1013"/>
          <path id="Path_5630" data-name="Path 5630" d="M386.775,123.795a2.356,2.356,0,0,0,1.178-.316l12.248-7.066a2.355,2.355,0,0,0-2.355-4.079L385.6,119.4a2.355,2.355,0,0,0,1.178,4.395Z" transform="translate(-273.593 -79.044)" fill="#0e1013"/>
          <path id="Path_5631" data-name="Path 5631" d="M321.165,46.585a2.355,2.355,0,0,0,3.217-.862l7.066-12.248a2.355,2.355,0,0,0-4.064-2.383l-.016.027L320.3,43.367A2.355,2.355,0,0,0,321.165,46.585Z" transform="translate(-228.13 -21.117)" fill="#0e1013"/>
          <path id="Path_5632" data-name="Path 5632" d="M155.318,112a35.37,35.37,0,0,0-35.33,35.33,2.355,2.355,0,1,0,4.711,0,30.654,30.654,0,0,1,30.619-30.619,2.355,2.355,0,0,0,0-4.711Z" transform="translate(-87.014 -79.026)" fill="#0e1013"/>
          <path id="Path_5633" data-name="Path 5633" d="M175.841,136.52v-.012c.075-.236.144-.49.2-.721.085-.325.155-.652.236-.98s.155-.655.2-.916a44.751,44.751,0,1,0-88.491-9.369c0,1.048.045,2.089.118,3.123.038.572.094,1.154.165,1.764.132,1.2.3,2.393.53,3.573.019.1.026.2.052.292.1.539.236,1.062.36,1.585.073.3.144.608.221.909.035.127.054.236.094.382.094.351.2.683.309,1.027.111.382.217.763.339,1.14l.014.045c.212.685.452,1.352.742,2.094.054.144.111.285.167.426a3.008,3.008,0,0,0,.2.509l.012.028c.158.419.342.836.525,1.227l.031.059c.118.266.236.53.363.8.059.132.115.278.174.4a40.536,40.536,0,0,0,2.106,3.877l.219.349c.141.236.285.471.429.671l.29.431c.141.207.287.417.431.624.1.151.2.3.306.45.052.085.1.167.167.257.049.066.1.132.155.2.092.127.186.236.278.36.386.523.777,1.041,1.178,1.547l.028.038c.075.09.153.174.236.264.471.57.942,1.135,1.449,1.684h.012c.419.471.864.914,1.307,1.361.141.139.271.287.412.426.061.059.115.125.177.184.636.612,1.3,1.2,1.948,1.778a38.632,38.632,0,0,0,3.905,3.005,2.354,2.354,0,0,0,.893.626l.921,6.859a2.2,2.2,0,0,0-.066.384,2.319,2.319,0,0,0,.266,1.039l1.734,12.888a2.276,2.276,0,0,0,.181.643,20.124,20.124,0,0,0,1.795,3.222v.016l.019.021a23.529,23.529,0,0,0,39.084,0l.019-.021.012-.016a20.124,20.124,0,0,0,1.795-3.222,2.277,2.277,0,0,0,.181-.643l2.848-21.172a2.318,2.318,0,0,0,.471-.219,44.787,44.787,0,0,0,18.216-25.2A.147.147,0,0,0,175.841,136.52Zm-55.543,51.6h24.881A18.783,18.783,0,0,1,120.3,188.115Zm29.371-5.888c-.186.4-.391.794-.61,1.178h-32.64c-.219-.382-.424-.775-.61-1.178l-1.425-10.6h36.71Zm2.054-15.281c-.049,0-.092-.028-.141-.028H113.75l-.634-4.711h39.244ZM128.028,157.5V135.441l3.319,2.391a2.355,2.355,0,0,0,2.753,0l3.349-2.412V157.5Zm44.661-30.383c-.045.725-.111,1.427-.2,2.134v.054a2.778,2.778,0,0,0-.059.391v.047c-.014.071-.024.141-.033.217s-.014.118-.021.181a1.486,1.486,0,0,1-.028.2c-.052.365-.106.728-.17,1.09-.031.165-.054.318-.094.5-.038.25-.1.518-.184.919v.042c-.059.283-.12.565-.186.846-.024.094-.04.174-.068.28a11.586,11.586,0,0,1-.3,1.147c-.045.167-.094.334-.141.5-.115.426-.236.843-.4,1.3-.193.6-.384,1.206-.619,1.783l-.092.236a9.47,9.47,0,0,1-.377.9,2.143,2.143,0,0,0-.13.316l-.047.106c-.21.528-.443,1.032-.744,1.649-.17.382-.358.742-.546,1.1l-.285.563a39.925,39.925,0,0,1-12.559,13.917,2.192,2.192,0,0,0-.372-.042H142.16V137.7l.188.134a2.355,2.355,0,0,0,2.749,0l5.5-3.952a2.355,2.355,0,1,0-2.64-3.9q-.054.037-.106.076l-4.131,2.965-4.129-2.965a2.355,2.355,0,0,0-2.751,0l-4.117,2.963-4.117-2.963a2.355,2.355,0,0,0-2.753,0l-4.115,2.963-4.11-2.963a2.356,2.356,0,1,0-2.756,3.823l5.488,3.955a2.355,2.355,0,0,0,2.753,0l.2-.146V157.5H110.434a2.541,2.541,0,0,0-.3.021,40.33,40.33,0,0,1-6.96-6.041c-.45-.49-.886-1.008-1.324-1.538-.08-.1-.167-.191-.247-.29-.4-.471-.763-.97-1.126-1.474-.139-.188-.287-.37-.422-.561V147.6c-.019-.028-.035-.054-.054-.078l-.078-.115c-.061-.08-.111-.163-.17-.236-.549-.8-1.06-1.616-1.55-2.447-.471-.791-.9-1.585-1.293-2.393-.158-.313-.32-.624-.471-.942-.045-.111-.1-.236-.127-.3l-.115-.236-.028-.057v-.012a39.157,39.157,0,0,1-1.514-3.931c-.042-.127-.082-.261-.125-.391-.214-.685-.415-1.378-.594-2.08a.636.636,0,0,0-.028-.111,2.831,2.831,0,0,0-.057-.28c-.042-.16-.073-.327-.111-.488-.113-.49-.236-.977-.325-1.472a.957.957,0,0,0-.021-.162c-.125-.643-.236-1.31-.316-1.976a1.854,1.854,0,0,0-.057-.433,1.629,1.629,0,0,0-.031-.212c-.087-.707-.151-1.394-.2-2.155-.075-.855-.1-1.712-.1-2.567a40.04,40.04,0,1,1,80.08,0C172.779,125.377,172.758,126.234,172.689,127.113Z" transform="translate(-64.435 -56.218)" fill="#0e1013"/>
        </g>
      </g>
    </g>
  </g>
</svg>
