<svg xmlns="http://www.w3.org/2000/svg" width="150" height="150" viewBox="0 0 150 150">
  <g id="Group_3948" data-name="Group 3948" transform="translate(-171.46 -397.46)">
    <rect id="Rectangle_1485" data-name="Rectangle 1485" width="150" height="150" rx="5" transform="translate(171.46 397.46)" fill="none"/>
    <g id="artificial-intelligence" transform="translate(186.166 402.413)">
      <path id="Path_6615" data-name="Path 6615" d="M109.712,137.308h-53.8l-3.581-6.139-3.07-7.034L37.5,126.82l-12.79,1.407-5.244-4.093v-8.825l-4.988-3.837-2.43-5.628-1.918-9.337L2.709,93.95V89.218l7.418-10.1,1.918-7.162L7.953,53.278l4.093-17.522L26.114,17.339,47.09,4.933,72.414,3.014l18.8,5.628,9.976,7.674,8.521,13.046,6.571,15.476V60.569l-3.2,17.266L105.667,95.1l-4.477,10.743-1.663,4.093,7.29,16.883Z" fill="#fff"/>
      <g id="Group_4491" data-name="Group 4491">
        <path id="Path_5617" data-name="Path 5617" d="M157.535,68.721c3.647-19.809-2.307-47.038-24-60.014A60.283,60.283,0,0,0,88.493,3.04C67.467,8.662,52.012,23.75,47.152,43.4a39.953,39.953,0,0,0-1.361,12.241A41.091,41.091,0,0,0,47.2,63.2a32.686,32.686,0,0,1,1.4,9.7c-.1,3.912-2.792,7.97-5.172,11.551-2.594,3.908-4.835,7.283-3.535,10.4a7.62,7.62,0,0,0,5.835,3.738,2.79,2.79,0,0,0,.424.043,2.188,2.188,0,0,1,2.448,2.333c0,4.851.121,7.353,2.125,8.5a4.273,4.273,0,0,0-.362,1.152,4.158,4.158,0,0,0,1.315,3.68,7.089,7.089,0,0,0,3.7,1.89c.1.023.191.04.283.062a5.967,5.967,0,0,1,.073,1.05,25.125,25.125,0,0,1-.185,2.6c-.388,3.734-.919,8.848,6.551,11.289a15.384,15.384,0,0,0,4.609.561,73.109,73.109,0,0,0,20.751-3.978,26.374,26.374,0,0,1,3.409,10.988,2.334,2.334,0,0,0,2.334,2.334h58.354a2.317,2.317,0,0,0,2.179-1.614,2.388,2.388,0,0,0-.834-2.628c-2.415-1.834-10.413-21.154-10.659-28.093.7-1.6,1.649-3.4,2.767-5.485A109.681,109.681,0,0,0,157.535,68.721Zm-19.979,39.8c.059,5.582,5.092,20.332,9.415,27.9H95.338a33.429,33.429,0,0,0-3.431-10.239c6.763-2.651,12.72-6.059,15.58-9.8a2.335,2.335,0,0,0-3.711-2.836c-6.606,8.644-34.092,15.206-40.228,13.2-3.886-1.271-3.732-2.763-3.358-6.369a29.352,29.352,0,0,0,.21-3.079c0-3.933-1.587-5.107-3.971-5.66a2.992,2.992,0,0,1-1.256-.486,6.477,6.477,0,0,1,1.543-1.093,2.335,2.335,0,0,0-1.028-4.43c-.843,0-1.78,0-2.273-.062a36.036,36.036,0,0,1-.15-4.6,6.827,6.827,0,0,0-6.832-7c-1.682-.354-2.193-.81-2.236-.916-.34-.81,1.91-4.2,3.118-6.014,2.592-3.9,5.817-8.76,5.949-14.015a32.753,32.753,0,0,0-.965-8.658,23.265,23.265,0,0,1,8.8-4.853,7.236,7.236,0,0,1,3.469.243,2.334,2.334,0,1,0,1.24-4.5,11.779,11.779,0,0,0-5.676-.311,24.053,24.053,0,0,0-9.044,4.492,27.735,27.735,0,0,1-.646-4.134,34.555,34.555,0,0,1,1.238-10.784C56.2,26.278,70.051,12.8,89.7,7.548a55.446,55.446,0,0,1,41.436,5.167C150.92,24.546,156.309,49.6,152.944,67.875a104.157,104.157,0,0,1-12.049,33.194c-1.283,2.395-2.391,4.462-3.191,6.376A2.282,2.282,0,0,0,137.557,108.523Z" transform="translate(-39.51 -1)" fill="#0e1013"/>
        <path id="Path_5618" data-name="Path 5618" d="M210.4,98.966a7,7,0,0,0-5.686-7.524l-4.47-6.2a6.92,6.92,0,0,0,.625-1.6l4.329-1.731a6.986,6.986,0,1,0,6.762-11.43l-3.507-7a6.974,6.974,0,0,0-8.576-10.858l-3.91-3.247a6.977,6.977,0,0,0-11.589-7.256l-6.92-1.73a6.958,6.958,0,0,0-13.392-.082l-9.248,1.85a6.969,6.969,0,0,0-11.144,8.225l-4.532,6.035a6.982,6.982,0,0,0-.4,13.656l3.747,9.251a6.99,6.99,0,1,0,11.49,7.31h12.531a6.76,6.76,0,0,0,7.64,4.56l7.749,11.787a6.985,6.985,0,1,0,12.067,5.881l5.784-4.624A6.968,6.968,0,0,0,210.4,98.966Zm.03-23.994a2.334,2.334,0,1,1-2.138,3.261c-.008-.021,0-.044-.012-.065l-.015-.023a2.3,2.3,0,0,1-.17-.839A2.337,2.337,0,0,1,210.426,74.972Zm-9.288-16.814a2.334,2.334,0,1,1,2.285,2.808,2.308,2.308,0,0,1-.842-.17l-.02-.013c-.021-.008-.042,0-.063-.012A2.331,2.331,0,0,1,201.138,58.158Zm-2.322,5.706h0L194.5,74.65,186.942,68.6a6.967,6.967,0,0,0,2.158-3.322l9.248-1.85C198.495,63.585,198.655,63.723,198.816,63.865Zm-2.485,18.741a2.333,2.333,0,1,1-2.244-2.965,2.307,2.307,0,0,1,.842.17l.02.013c.021.008.043,0,.064.013A2.333,2.333,0,0,1,196.331,82.605Zm-6.913-37.977a2.334,2.334,0,1,1-2.334,2.334A2.334,2.334,0,0,1,189.418,44.628Zm-12.283.5,5.332,1.333c-.012.168-.05.328-.05.5a7.01,7.01,0,0,0,7,7,6.926,6.926,0,0,0,3.549-1l3.911,3.247a6.93,6.93,0,0,0-.458,2.422c0,.141.034.273.042.413l-7.6,1.52a7.005,7.005,0,0,0-5.369-4.158l-8.546-8.546A7.022,7.022,0,0,0,177.135,45.13ZM184.75,63.3a2.334,2.334,0,1,1-2.334-2.334A2.334,2.334,0,0,1,184.75,63.3ZM170.745,39.96a2.334,2.334,0,1,1-2.334,2.334A2.334,2.334,0,0,1,170.745,39.96Zm.463,10.767,7.008,7.007a6.991,6.991,0,0,0-2.372,3.233h-5.529a6.992,6.992,0,0,0-3.043-3.679ZM156.7,46.55l7.6-1.52a7.02,7.02,0,0,0,2.915,3.278l-4.237,7.062-7.325-4.7a6.938,6.938,0,0,0,1.086-3.707C156.74,46.821,156.707,46.689,156.7,46.55ZM166.077,63.3a2.334,2.334,0,1,1-2.334-2.334A2.334,2.334,0,0,1,166.077,63.3ZM149.738,44.628a2.334,2.334,0,1,1-2.334,2.334A2.334,2.334,0,0,1,149.738,44.628ZM147.2,53.47a6.549,6.549,0,0,0,4.472.19l7.207,4.624a6.988,6.988,0,0,0-1.705,2.683h-10.2a7.008,7.008,0,0,0-2.759-3.525Zm-6.8,12.165a2.334,2.334,0,1,1,2.334-2.334A2.334,2.334,0,0,1,140.4,65.636Zm7,21.008a2.334,2.334,0,1,1,2.334-2.334A2.334,2.334,0,0,1,147.4,86.643Zm1.327-9.2a7,7,0,0,0-1.327-.134c-.231,0-.449.046-.675.068l-3.181-7.852a7,7,0,0,0,3.425-3.887h10.2a6.981,6.981,0,0,0,2.108,3.015Zm17.776,4.534H153.976a6.951,6.951,0,0,0-1.065-1.939l11.464-9.553,3.9,8.755A6.989,6.989,0,0,0,166.507,81.975Zm3.808-16.339h5.529a6.992,6.992,0,0,0,3.043,3.679L174.034,77.4a6.939,6.939,0,0,0-.954-.1c-.181,0-.351.04-.528.053l-4.007-8.987A6.992,6.992,0,0,0,170.315,65.636Zm2.764,21.008a2.334,2.334,0,1,1,2.334-2.334A2.334,2.334,0,0,1,173.079,86.643Zm9.964-15.182,6.519,5.215A6.971,6.971,0,0,0,187.4,80l-7.879,1.576a7.009,7.009,0,0,0-1.336-2.02Zm4.041,38.524a2.334,2.334,0,1,1,2.334-2.334A2.334,2.334,0,0,1,187.084,109.985Zm9.337-11.671a6.919,6.919,0,0,0,.415,2.286l-3.94,3.15a6.733,6.733,0,0,0-6.879-2.993l-7.749-11.787a6.958,6.958,0,0,0,1.5-2.683l7.879-1.576a6.993,6.993,0,0,0,9.144,3.723l2.88,3.991A6.988,6.988,0,0,0,196.421,98.314Zm2.273-21.571,4.454-11.135c.093,0,.181.028.275.028a6.858,6.858,0,0,0,.84-.085l2.826,5.638a6.98,6.98,0,0,0-3.666,6.118c0,.095.024.182.028.276l-3.138,1.255A7,7,0,0,0,198.694,76.743Zm4.729,23.905a2.334,2.334,0,1,1,2.334-2.334A2.334,2.334,0,0,1,203.423,100.648Z" transform="translate(-107.716 -25.911)" fill="#0e1013"/>
      </g>
    </g>
  </g>
</svg>
