<svg xmlns="http://www.w3.org/2000/svg" width="150" height="150" viewBox="0 0 150 150">
  <g id="Group_3948" data-name="Group 3948" transform="translate(-170.781 -396.781)">
    <rect id="Rectangle_1485" data-name="Rectangle 1485" width="150" height="150" rx="5" transform="translate(170.781 396.781)" fill="none"/>
    <g id="Money_growth" data-name="Money growth" transform="translate(179.834 405.884)">
      <path id="Path_6618" data-name="Path 6618" d="M100.044,46.254l26.109.757,2.573,3.254v76.966l-12.638,2.195-18.163-.605-2.043-8.249,1.06-6.054L95.882,48.3Z" fill="#fff"/>
      <path id="Path_6616" data-name="Path 6616" d="M7.842,67.8l6.139-3.453h6.651L26.9,65.756,33.677,71.9l1.535,9.72-4.6,9.976L26.9,95.045l6.779,1.535s3.07,3.2,2.686,3.965-1.151,9.976-1.151,9.976v16.371l-4.6,2.3H5.028s-2.046-3.581-2.046-4.476V115a25.4,25.4,0,0,1,0-4.476c.256-1.023-1.663-7.674-1.663-7.674l5.5-7.8,4.349-1.279L4,88.139,2.982,81.616,5.028,71.9Z" fill="#fff"/>
      <path id="Path_6617" data-name="Path 6617" d="M55.41,62.264H77.547l3.739,1.771,2.263,5.313L81.285,77.71V127.1l-7.772,1.968H53.541s-2.755-1.082-3.443-1.968,0-8.461,0-8.461V66.494l2.558-4.23Z" fill="#fff"/>
      <path id="Path_5619" data-name="Path 5619" d="M72.47,22.866A6.866,6.866,0,0,0,65.6,16H40.885a6.866,6.866,0,0,0-6.866,6.866c0,9.311-.3,10.107,1.4,12.359a6.894,6.894,0,0,0-1.4,4.12c0,9.311-.3,10.107,1.4,12.359-1.758,2.335-1.4,3.461-1.4,12.359a6.894,6.894,0,0,0,1.4,4.12,6.894,6.894,0,0,0-1.4,4.12c0,9.311-.3,10.107,1.4,12.359-1.758,2.335-1.4,3.461-1.4,12.359a6.866,6.866,0,0,0,6.866,6.866H65.6a6.866,6.866,0,0,0,6.866-6.866c0-9.311.3-10.107-1.4-12.359a6.894,6.894,0,0,0,1.4-4.12c0-9.311.3-10.107-1.4-12.359,1.758-2.335,1.4-3.461,1.4-12.359a6.894,6.894,0,0,0-1.4-4.12,6.894,6.894,0,0,0,1.4-4.12c0-9.311.3-10.107-1.4-12.359C72.827,32.891,72.47,31.765,72.47,22.866Zm-32.958,0a1.373,1.373,0,0,1,1.373-1.373H65.6c1.813,0,1.373,1.428,1.373,9.613A1.373,1.373,0,0,1,65.6,32.479H40.885C39.072,32.479,39.512,31.051,39.512,22.866ZM66.977,39.345c0,8.239.439,9.613-1.373,9.613H40.885a1.373,1.373,0,0,1-1.373-1.373c0-8.239-.439-9.613,1.373-9.613H65.6A1.373,1.373,0,0,1,66.977,39.345Zm0,16.479c0,8.239.439,9.613-1.373,9.613H40.885a1.373,1.373,0,0,1-1.373-1.373c0-8.239-.439-9.613,1.373-9.613H65.6A1.373,1.373,0,0,1,66.977,55.824Zm0,16.479c0,8.239.439,9.613-1.373,9.613H40.885a1.373,1.373,0,0,1-1.373-1.373c0-8.239-.439-9.613,1.373-9.613H65.6A1.373,1.373,0,0,1,66.977,72.3Zm0,24.718A1.373,1.373,0,0,1,65.6,98.395H40.885c-1.813,0-1.373-1.428-1.373-9.613a1.373,1.373,0,0,1,1.373-1.373H65.6C67.416,87.409,66.977,88.837,66.977,97.021Z" transform="translate(59.391 27.906)" fill="#0e1013"/>
      <path id="Path_5620" data-name="Path 5620" d="M48.6,22H23.885a6.866,6.866,0,0,0-6.866,6.866c0,9.311-.3,10.107,1.4,12.359-1.758,2.335-1.4,3.461-1.4,12.359a6.894,6.894,0,0,0,1.4,4.12,6.894,6.894,0,0,0-1.4,4.12c0,9.311-.3,10.107,1.4,12.359-1.758,2.335-1.4,3.461-1.4,12.359a6.866,6.866,0,0,0,6.866,6.866H48.6a6.866,6.866,0,0,0,6.866-6.866c0-9.311.3-10.107-1.4-12.359a6.894,6.894,0,0,0,1.4-4.12c0-9.311.3-10.107-1.4-12.359,1.758-2.335,1.4-3.461,1.4-12.359a6.894,6.894,0,0,0-1.4-4.12c1.758-2.335,1.4-3.461,1.4-12.359A6.866,6.866,0,0,0,48.6,22ZM22.512,28.866a1.373,1.373,0,0,1,1.373-1.373H48.6c1.813,0,1.373,1.428,1.373,9.613A1.373,1.373,0,0,1,48.6,38.479H23.885C22.072,38.479,22.512,37.051,22.512,28.866ZM49.977,45.345c0,8.239.439,9.613-1.373,9.613H23.885a1.373,1.373,0,0,1-1.373-1.373c0-8.239-.439-9.613,1.373-9.613H48.6A1.373,1.373,0,0,1,49.977,45.345Zm0,16.479c0,8.239.439,9.613-1.373,9.613H23.885a1.373,1.373,0,0,1-1.373-1.373c0-8.239-.439-9.613,1.373-9.613H48.6A1.373,1.373,0,0,1,49.977,61.824Zm0,24.718A1.373,1.373,0,0,1,48.6,87.916H23.885c-1.813,0-1.373-1.428-1.373-9.613a1.373,1.373,0,0,1,1.373-1.373H48.6C50.416,76.93,49.977,78.358,49.977,86.542Z" transform="translate(29.701 38.385)" fill="#0e1013"/>
      <path id="Path_5621" data-name="Path 5621" d="M19.244,22A19.225,19.225,0,0,0,5.924,54.958a6.839,6.839,0,0,0-5.9,6.866c0,9.311-.3,10.107,1.4,12.359-1.758,2.335-1.4,3.461-1.4,12.359a6.866,6.866,0,0,0,6.866,6.866H31.6a6.866,6.866,0,0,0,6.866-6.866c0-9.311.3-10.107-1.4-12.359,1.758-2.335,1.4-3.461,1.4-12.359a6.839,6.839,0,0,0-5.9-6.866A19.225,19.225,0,0,0,19.244,22ZM5.512,41.225A13.732,13.732,0,1,1,19.244,54.958,13.732,13.732,0,0,1,5.512,41.225ZM32.977,86.542A1.373,1.373,0,0,1,31.6,87.916H6.885c-1.813,0-1.373-1.428-1.373-9.613A1.373,1.373,0,0,1,6.885,76.93H31.6C33.416,76.93,32.977,78.358,32.977,86.542ZM31.6,60.451c1.813,0,1.373,1.428,1.373,9.613A1.373,1.373,0,0,1,31.6,71.437H6.885c-1.813,0-1.373-1.428-1.373-9.613a1.373,1.373,0,0,1,1.373-1.373Z" transform="translate(0.011 38.385)" fill="#0e1013"/>
      <path id="Path_5622" data-name="Path 5622" d="M8.844,52.159c1.428,0-.961,1.648,33.1-26.751l17.5,12.5a2.746,2.746,0,0,0,3.323,0L97.583,9.973,96.21,15.466a2.748,2.748,0,0,0,5.328,1.346l3.433-13.43a3.159,3.159,0,0,0-.522-2.389C103.213-.436,103.186-.024,88.492.5a2.748,2.748,0,1,0,.192,5.493L94.177,5.8,61.027,32.247,43.395,19.723a2.746,2.746,0,0,0-3.351,0L7.086,47.188a2.746,2.746,0,0,0,1.758,4.971Z" transform="translate(10.411 -0.014)" fill="#0e1013"/>
    </g>
  </g>
</svg>
