<svg xmlns="http://www.w3.org/2000/svg" width="285" height="285" viewBox="0 0 285 285">
  <g id="in-page" transform="translate(-330 -1147)">
    <rect id="Rectangle_2293" data-name="Rectangle 2293" width="285" height="285" rx="20" transform="translate(330 1147)" fill="#fff"/>
    <g id="Group_4509" data-name="Group 4509" transform="translate(0 -9)">
      <rect id="Rectangle_2310" data-name="Rectangle 2310" width="245" height="4" rx="2" transform="translate(350 1176)" fill="#f1f3f4"/>
      <rect id="Rectangle_2327" data-name="Rectangle 2327" width="245" height="4" rx="2" transform="translate(350 1212)" fill="#f1f3f4"/>
      <rect id="Rectangle_2329" data-name="Rectangle 2329" width="245" height="4" rx="2" transform="translate(350 1248)" fill="#f1f3f4"/>
      <rect id="Rectangle_2331" data-name="Rectangle 2331" width="245" height="4" rx="2" transform="translate(350 1284)" fill="#f1f3f4"/>
      <rect id="Rectangle_2311" data-name="Rectangle 2311" width="190" height="4" rx="2" transform="translate(350 1194)" fill="#f1f3f4"/>
      <rect id="Rectangle_2326" data-name="Rectangle 2326" width="190" height="4" rx="2" transform="translate(350 1230)" fill="#f1f3f4"/>
      <rect id="Rectangle_2328" data-name="Rectangle 2328" width="190" height="4" rx="2" transform="translate(350 1266)" fill="#f1f3f4"/>
      <rect id="Rectangle_2330" data-name="Rectangle 2330" width="190" height="4" rx="2" transform="translate(350 1302)" fill="#f1f3f4"/>
      <rect id="Rectangle_2360" data-name="Rectangle 2360" width="190" height="4" rx="2" transform="translate(350 1410)" fill="#f1f3f4"/>
    </g>
    <g id="Group_4508" data-name="Group 4508" transform="translate(350.214 1315.75)">
      <g id="Rectangle_1674" data-name="Rectangle 1674" transform="translate(-0.214 -5.75)" fill="#fff" stroke="#0e1013" stroke-width="2">
        <rect width="245" height="77" rx="10" stroke="none"/>
        <rect x="1" y="1" width="243" height="75" rx="9" fill="none"/>
      </g>
      <g id="Group_3012" data-name="Group 3012" transform="translate(6.236 48.929)">
        <rect id="Rectangle_1694" data-name="Rectangle 1694" width="225" height="14" rx="4" transform="translate(3.549 -1.679)" fill="#aef2c9"/>
        <g id="Group_3011" data-name="Group 3011" transform="translate(177.42 3.321)">
          <rect id="Rectangle_1693" data-name="Rectangle 1693" width="41" height="4" rx="2" transform="translate(0.129 0)" fill="#0e1013"/>
        </g>
      </g>
      <g id="landscape-line" transform="translate(108.036 9.357)">
        <path id="Path_4776" data-name="Path 4776" d="M0,0H28.5V28.5H0Z" fill="none"/>
        <path id="Path_6623" data-name="Path 6623" d="M-458.25-2787.233l8.732-16.214,2.707,5.028,4.43-7.384,9.9,18.57Zm13.045-8.274,2.945,5.4h4.992l-5.26-9.861Zm-8.231,5.4h7.836l-3.918-7.276Zm-3.457-15.781a3.222,3.222,0,0,1,3.218-3.219,3.223,3.223,0,0,1,3.219,3.219,3.223,3.223,0,0,1-3.219,3.219A3.222,3.222,0,0,1-456.894-2805.889Z" transform="translate(460.206 2812.42)" fill="#0e1013"/>
      </g>
    </g>
  </g>
</svg>
