<svg xmlns="http://www.w3.org/2000/svg" width="24" height="24" viewBox="0 0 24 24">
  <g id="ins" transform="translate(-392 -114)">
    <rect id="Rectangle_1784" data-name="Rectangle 1784" width="24" height="24" transform="translate(392 114)" fill="none"/>
    <g id="instagram_4_" data-name="instagram (4)" transform="translate(394.456 116.456)">
      <path id="Path_4902" data-name="Path 4902" d="M-1180.585-24.719c-1.807-1.808-1.6-4.224-1.6-7.936,0-3.627-.235-6.1,1.6-7.937a5.7,5.7,0,0,1,4.005-1.543c1.757-.078,6.107-.082,7.864,0,3.592.165,5.39,2.2,5.547,5.547.078,1.758.083,6.107,0,7.864-.131,2.839-1.464,4.419-3.233,5.106-1.3.5-2.569.5-6.247.5-.744,0-1.44.01-2.095.01C-1177.246-23.108-1179.125-23.259-1180.585-24.719Zm14.649-1.214c1.182-1.188,1.107-2.792,1.108-6.723,0-2.546-.011-2.849-.056-3.855-.2-4.41-3.525-3.966-7.763-3.966l-.036-.023c-2.55,0-2.849.012-3.862.048-4.411.225-3.959,3.39-3.959,7.785,0,3.247-.243,5.388,1.1,6.722,1.163,1.167,2.758,1.108,6.735,1.108C-1168.81-24.837-1167.141-24.73-1165.937-25.933Zm-11.61-6.722a4.9,4.9,0,0,1,4.9-4.9,4.9,4.9,0,0,1,4.9,4.9,4.9,4.9,0,0,1-4.9,4.9A4.9,4.9,0,0,1-1177.547-32.655Zm1.719,0a3.177,3.177,0,0,0,3.179,3.179,3.177,3.177,0,0,0,3.179-3.179,3.179,3.179,0,0,0-3.179-3.18A3.179,3.179,0,0,0-1175.828-32.655Zm7.126-5.091a1.144,1.144,0,0,1,1.144-1.144,1.144,1.144,0,0,1,1.145,1.144,1.144,1.144,0,0,1-1.145,1.144A1.144,1.144,0,0,1-1168.7-37.746Z" transform="translate(1182.196 42.195)" fill="#0e1013"/>
    </g>
  </g>
</svg>
