<svg xmlns="http://www.w3.org/2000/svg" width="285" height="285" viewBox="0 0 285 285">
  <g id="preroll" transform="translate(-330 -1147)">
    <rect id="Rectangle_2293" data-name="Rectangle 2293" width="285" height="285" rx="20" transform="translate(330 1147)" fill="#fff"/>
    <g id="Group_4509" data-name="Group 4509" transform="translate(0 88)">
      <rect id="Rectangle_2310" data-name="Rectangle 2310" width="245" height="4" rx="2" transform="translate(350 1176)" fill="#f1f3f4"/>
      <rect id="Rectangle_2327" data-name="Rectangle 2327" width="245" height="4" rx="2" transform="translate(350 1212)" fill="#f1f3f4"/>
      <rect id="Rectangle_2329" data-name="Rectangle 2329" width="245" height="4" rx="2" transform="translate(350 1248)" fill="#f1f3f4"/>
      <rect id="Rectangle_2331" data-name="Rectangle 2331" width="245" height="4" rx="2" transform="translate(350 1284)" fill="#f1f3f4"/>
      <rect id="Rectangle_2333" data-name="Rectangle 2333" width="245" height="4" rx="2" transform="translate(350 1320)" fill="#f1f3f4"/>
      <rect id="Rectangle_2311" data-name="Rectangle 2311" width="190" height="4" rx="2" transform="translate(350 1194)" fill="#f1f3f4"/>
      <rect id="Rectangle_2326" data-name="Rectangle 2326" width="190" height="4" rx="2" transform="translate(350 1230)" fill="#f1f3f4"/>
      <rect id="Rectangle_2328" data-name="Rectangle 2328" width="190" height="4" rx="2" transform="translate(350 1266)" fill="#f1f3f4"/>
      <rect id="Rectangle_2330" data-name="Rectangle 2330" width="190" height="4" rx="2" transform="translate(350 1302)" fill="#f1f3f4"/>
    </g>
    <g id="Group_4508" data-name="Group 4508" transform="translate(350.214 1172.75)">
      <g id="Rectangle_1674" data-name="Rectangle 1674" transform="translate(-0.214 -5.75)" fill="#fff" stroke="#0e1013" stroke-width="2">
        <rect width="245" height="77" rx="10" stroke="none"/>
        <rect x="1" y="1" width="243" height="75" rx="9" fill="none"/>
      </g>
      <g id="play-fill" transform="translate(106.786 13.25)">
        <path id="Path_4768" data-name="Path 4768" d="M0,0H32V32H0Z" fill="none"/>
        <path id="Path_4769" data-name="Path 4769" d="M23.168,15.077,9.036,24.5A.667.667,0,0,1,8,23.943V5.1a.667.667,0,0,1,1.036-.555l14.132,9.421a.667.667,0,0,1,0,1.109Z" transform="translate(2.667 1.478)" fill="#0e1013"/>
      </g>
      <rect id="Rectangle_1694" data-name="Rectangle 1694" width="225" height="4" rx="2" transform="translate(9.786 57.25)" fill="#aef2c9"/>
      <circle id="Ellipse_25" data-name="Ellipse 25" cx="5" cy="5" r="5" transform="translate(28.786 54.25)" fill="#0e1013"/>
    </g>
  </g>
</svg>
