<svg xmlns="http://www.w3.org/2000/svg" width="24" height="24" viewBox="0 0 24 24">
  <g id="wp" transform="translate(-391.95 -113.95)">
    <rect id="Rectangle_1784" data-name="Rectangle 1784" width="24" height="24" transform="translate(391.95 113.95)" fill="none"/>
    <g id="whatsapp" transform="translate(394.299 116.299)">
      <g id="Group_3220" data-name="Group 3220">
        <path id="Path_4898" data-name="Path 4898" d="M9.654,0h0A9.645,9.645,0,0,0,1.837,15.308l-1.2,3.585,3.71-1.186A9.65,9.65,0,1,0,9.654,0ZM15.27,13.629a2.723,2.723,0,0,1-1.894,1.362c-.5.107-1.163.193-3.38-.726A12.09,12.09,0,0,1,5.19,10.021,5.512,5.512,0,0,1,4.044,7.109a3.081,3.081,0,0,1,.987-2.349,1.4,1.4,0,0,1,.987-.346c.119,0,.227.006.323.011.284.012.426.029.613.477.233.561.8,1.946.867,2.088a.574.574,0,0,1,.041.522,1.668,1.668,0,0,1-.312.443c-.142.164-.277.29-.42.466-.13.153-.277.317-.113.6a8.567,8.567,0,0,0,1.566,1.946,7.1,7.1,0,0,0,2.263,1.4.61.61,0,0,0,.68-.107,11.677,11.677,0,0,0,.754-1,.539.539,0,0,1,.692-.21c.261.09,1.64.772,1.923.913s.471.21.539.329A2.4,2.4,0,0,1,15.27,13.629Z" fill="#0e1013"/>
      </g>
    </g>
  </g>
</svg>
