<svg xmlns="http://www.w3.org/2000/svg" width="24" height="24" viewBox="0 0 24 24">
  <g id="yt" transform="translate(-392 -114)">
    <rect id="Rectangle_1784" data-name="Rectangle 1784" width="24" height="24" transform="translate(392 114)" fill="none"/>
    <path id="youtube_1_" data-name="youtube (1)" d="M21.031-3.729a2.69,2.69,0,0,0-1.893-1.893c-1.68-.46-8.4-.46-8.4-.46s-6.721,0-8.4.442A2.745,2.745,0,0,0,.443-3.729,28.346,28.346,0,0,0,0,1.435,28.242,28.242,0,0,0,.443,6.6,2.691,2.691,0,0,0,2.336,8.493c1.7.46,8.4.46,8.4.46s6.721,0,8.4-.442a2.69,2.69,0,0,0,1.893-1.893,28.356,28.356,0,0,0,.442-5.165,26.908,26.908,0,0,0-.442-5.182ZM8.6,4.655V-1.784l5.589,3.219Zm0,0" transform="translate(393.262 124.565)" fill="#0e1013"/>
  </g>
</svg>
